<?xml version="1.0" standalone="no"?><svg xmlns="http://www.w3.org/2000/svg" viewBox="0 0 1440 320"><path fill="#0068bd" fill-opacity="1" d="M0,288L20,272C40,256,80,224,120,202.7C160,181,200,171,240,176C280,181,320,203,360,229.3C400,256,440,288,480,282.7C520,277,560,235,600,202.7C640,171,680,149,720,160C760,171,800,213,840,229.3C880,245,920,235,960,224C1000,213,1040,203,1080,170.7C1120,139,1160,85,1200,106.7C1240,128,1280,224,1320,266.7C1360,309,1400,299,1420,293.3L1440,288L1440,320L1420,320C1400,320,1360,320,1320,320C1280,320,1240,320,1200,320C1160,320,1120,320,1080,320C1040,320,1000,320,960,320C920,320,880,320,840,320C800,320,760,320,720,320C680,320,640,320,600,320C560,320,520,320,480,320C440,320,400,320,360,320C320,320,280,320,240,320C200,320,160,320,120,320C80,320,40,320,20,320L0,320Z"></path></svg>